<?xml version="1.0" encoding="UTF-8"?>
<svg version="1.1" xmlns="http://www.w3.org/2000/svg" width="204" height="192">
<path d="M0 0 C67.32 0 134.64 0 204 0 C204 63.36 204 126.72 204 192 C136.68 192 69.36 192 0 192 C0 128.64 0 65.28 0 0 Z " fill="#000000" transform="translate(0,0)"/>
<path d="M0 0 C7.26 0 14.52 0 22 0 C22 6.27 22 12.54 22 19 C29.26 19 36.52 19 44 19 C44 12.73 44 6.46 44 0 C51.26 0 58.52 0 66 0 C66 6.27 66 12.54 66 19 C71.94 19 77.88 19 84 19 C84 26.26 84 33.52 84 41 C78.06 41 72.12 41 66 41 C66 48.26 66 55.52 66 63 C71.94 63 77.88 63 84 63 C84 70.26 84 77.52 84 85 C78.06 85 72.12 85 66 85 C66 91.27 66 97.54 66 104 C58.74 104 51.48 104 44 104 C44 97.73 44 91.46 44 85 C36.74 85 29.48 85 22 85 C22 91.27 22 97.54 22 104 C14.74 104 7.48 104 0 104 C0 97.73 0 91.46 0 85 C-5.94 85 -11.88 85 -18 85 C-18 77.74 -18 70.48 -18 63 C-12.06 63 -6.12 63 0 63 C0 55.74 0 48.48 0 41 C-5.94 41 -11.88 41 -18 41 C-18 33.74 -18 26.48 -18 19 C-12.06 19 -6.12 19 0 19 C0 12.73 0 6.46 0 0 Z " fill="#FAFAFA" transform="translate(69,44)"/>
<path d="M0 0 C7.26 0 14.52 0 22 0 C22 7.26 22 14.52 22 22 C14.74 22 7.48 22 0 22 C0 14.74 0 7.48 0 0 Z " fill="#101010" transform="translate(91,85)"/>
</svg>
