<?xml version="1.0" encoding="UTF-8"?>
<svg version="1.1" xmlns="http://www.w3.org/2000/svg" width="214" height="235">
<path d="M0 0 C70.62 0 141.24 0 214 0 C214 77.55 214 155.1 214 235 C143.38 235 72.76 235 0 235 C0 157.45 0 79.9 0 0 Z " fill="#FDFDFD" transform="translate(0,0)"/>
<path d="M0 0 C13.69199204 -0.04651884 27.38396501 -0.08196803 41.07602024 -0.10362434 C47.43506746 -0.11402282 53.79406026 -0.12810953 60.15307617 -0.15087891 C66.29984503 -0.17274839 72.44656183 -0.18459816 78.59336662 -0.18975449 C80.92828121 -0.19342507 83.26319323 -0.20059214 85.5980854 -0.21146011 C124.92152384 -0.38707056 124.92152384 -0.38707056 137.4296875 10.046875 C143.26788416 17.30831363 143.60448956 23.88301512 143.56640625 32.8984375 C143.57260483 34.12857574 143.57880341 35.35871399 143.58518982 36.62612915 C143.59227169 39.21982027 143.58914272 41.813557 143.57641602 44.40722656 C143.56256777 48.35567762 143.59663135 52.3017493 143.63476562 56.25 C143.63571709 58.77864641 143.63385651 61.30729576 143.62890625 63.8359375 C143.64216446 65.00603363 143.65542267 66.17612976 143.66908264 67.38168335 C143.58378026 74.9678718 142.25527448 80.64036528 138 87 C135.6484375 89.25390625 135.6484375 89.25390625 133.375 90.5625 C132.61960938 91.01753906 131.86421875 91.47257812 131.0859375 91.94140625 C127.48522135 93.76873598 124.67408798 94.12734216 120.69335938 94.1418457 C119.06521301 94.15239738 119.06521301 94.15239738 117.4041748 94.16316223 C116.22923462 94.16732651 115.05429443 94.17149078 113.84375 94.17578125 C111.35155418 94.1989932 108.85936667 94.22311108 106.3671875 94.24804688 C102.44167639 94.28305237 98.51646796 94.31244343 94.59082031 94.32592773 C90.79975615 94.34149629 87.00957739 94.38177935 83.21875 94.42578125 C82.06000366 94.42387283 80.90125732 94.42196442 79.70739746 94.41999817 C69.17243608 94.57642158 60.39490089 96.78114311 52.65234375 104.20703125 C47.05215308 110.28383389 44.81995181 116.30168676 44.5859375 124.4921875 C44.54726563 125.69101563 44.50859375 126.88984375 44.46875 128.125 C44.4378125 129.3625 44.406875 130.6 44.375 131.875 C44.31699219 133.76605469 44.31699219 133.76605469 44.2578125 135.6953125 C44.16383011 138.79673137 44.07816589 141.89814886 44 145 C20.10642969 145.90426904 20.10642969 145.90426904 12.25390625 139.59765625 C-2.28473017 124.76897222 -0.43087785 98.53354697 -0.29296875 79.4921875 C-0.28735874 77.18621093 -0.28309531 74.88023073 -0.28010559 72.57424927 C-0.26876732 66.56725827 -0.23939766 60.56049227 -0.20599365 54.55358887 C-0.17505241 48.3990381 -0.16154935 42.24445023 -0.14648438 36.08984375 C-0.11451523 24.05979813 -0.06345571 12.02991793 0 0 Z " fill="#3C79AA" transform="translate(0,0)"/>
<path d="M0 0 C3.66651247 -0.08796382 7.33274918 -0.14071247 11 -0.1875 C12.54494141 -0.22520508 12.54494141 -0.22520508 14.12109375 -0.26367188 C20.49588394 -0.32457751 25.22358996 0.23882251 31 3 C33 5 33 5 33 8 C33.61649414 8.23904053 34.23298828 8.47808105 34.86816406 8.72436523 C38.86546043 11.11624264 39.6733208 15.73328937 41 20 C41.93400223 23.78826544 42.62170432 27.5879015 43.25 31.4375 C43.42273438 32.39720703 43.59546875 33.35691406 43.7734375 34.34570312 C46.96629642 53.16076463 43.94360285 72.30508447 33.25 88.37890625 C30.03482948 92.54858052 27.11047896 94.25371304 22 95 C19.54770017 95.08646579 17.09322444 95.11770566 14.6394043 95.11352539 C13.91690994 95.11367142 13.19441559 95.11381744 12.45002747 95.1139679 C10.07472678 95.11327422 7.69950565 95.10550745 5.32421875 95.09765625 C3.67226708 95.09579013 2.02031485 95.09436714 0.36836243 95.09336853 C-3.97007792 95.08955861 -8.30848455 95.07974139 -12.64691162 95.06866455 C-17.07775415 95.0584176 -21.50860215 95.05386388 -25.93945312 95.04882812 C-34.62631752 95.03811771 -43.31315456 95.02105966 -52 95 C-52 96.98 -52 98.96 -52 101 C-36.49 101 -20.98 101 -5 101 C-5 105.104375 -5 109.20875 -5 113.4375 C-4.979375 114.71294678 -4.95875 115.98839355 -4.9375 117.30249023 C-5.08833285 124.85886255 -6.48840912 128.88131629 -11.88232422 134.23339844 C-20.8709481 141.73186309 -33.38438088 145.50275603 -45 146 C-46.68609375 146.09474609 -46.68609375 146.09474609 -48.40625 146.19140625 C-63.36681954 146.64788032 -80.09128193 144.55304358 -91.875 134.5625 C-97.03018743 128.34595046 -99.11033384 123.88068517 -99.14526367 115.84594727 C-99.15164352 114.84463272 -99.15802338 113.84331818 -99.16459656 112.81166077 C-99.16570938 111.74072678 -99.1668222 110.66979279 -99.16796875 109.56640625 C-99.17129715 108.45571274 -99.17462555 107.34501923 -99.17805481 106.20066833 C-99.18311109 103.85473036 -99.18546354 101.50878521 -99.18530273 99.1628418 C-99.18748984 95.57914365 -99.20566132 91.99575312 -99.22460938 88.41210938 C-99.22754345 86.13020938 -99.22952815 83.84830793 -99.23046875 81.56640625 C-99.23765427 80.49749649 -99.24483978 79.42858673 -99.25224304 78.32728577 C-99.22374088 69.02182 -97.26662928 62.94972157 -91 56 C-87.875 53.625 -87.875 53.625 -85 52 C-84.40006729 51.6410968 -83.80013458 51.2821936 -83.18202209 50.91241455 C-80.40449469 49.75098891 -78.22163455 49.76233796 -75.21264648 49.77636719 C-74.0472081 49.77586365 -72.88176971 49.77536011 -71.68101501 49.77484131 C-69.79510399 49.78574799 -69.79510399 49.78574799 -67.87109375 49.796875 C-65.88411958 49.78902485 -63.89714483 49.78113813 -61.91018009 49.77118301 C-57.02164454 49.74864437 -52.13339635 49.74419208 -47.24487305 49.77001953 C-44.50238542 49.78359734 -41.76077729 49.78107147 -39.01832581 49.76153564 C-36.44280657 49.74386961 -33.86699374 49.74910631 -31.29161072 49.78094482 C-23.00308063 49.68942449 -16.63474976 48.17519889 -10 43 C-8.11917238 40.65735633 -6.57942424 38.38021095 -5.12109375 35.7578125 C-4.75113281 35.17773438 -4.38117188 34.59765625 -4 34 C-3.34 34 -2.68 34 -2 34 C-0.77307623 27.06117901 -0.6624055 20.0935622 -0.4375 13.0625 C-0.37272461 11.17821289 -0.37272461 11.17821289 -0.30664062 9.25585938 C-0.20106381 6.17067032 -0.09895449 3.08540737 0 0 Z " fill="#FEDE58" transform="translate(149,50)"/>
<path d="M0 0 C28.05 0 56.1 0 85 0 C85 0.33 85 0.66 85 1 C83.56720703 1.14695313 83.56720703 1.14695313 82.10546875 1.296875 C66.65858409 2.88755137 66.65858409 2.88755137 54 11 C50.69853573 17.94530262 50.46620871 24.39117014 50.3125 32 C50.209375 35.96 50.10625 39.92 50 44 C65.51 44 81.02 44 97 44 C97 45.98 97 47.96 97 50 C95.72119209 50.00546844 95.72119209 50.00546844 94.41654968 50.01104736 C86.34058477 50.04908021 78.26501744 50.10610476 70.18933392 50.18390274 C66.03856119 50.22323486 61.88799609 50.25549259 57.73706055 50.27099609 C53.72322798 50.28625762 49.70996674 50.32086829 45.69639015 50.36830902 C44.173226 50.38302579 42.64998023 50.39103538 41.12674522 50.39188385 C30.850766 50.40335326 22.28082137 51.51065479 13.1875 56.5625 C5.10371055 65.5701511 3.15370456 76.48401501 1 88 C0.67 88 0.34 88 0 88 C0 58.96 0 29.92 0 0 Z " fill="#FDFEFE" transform="translate(0,0)"/>
<path d="M0 0 C-0.66 0.66 -1.32 1.32 -2 2 C-2 2.99 -2 3.98 -2 5 C-2.33 5.99 -2.66 6.98 -3 8 C-5.31 8.33 -7.62 8.66 -10 9 C-11.87009479 13.20771328 -12.01834032 16.55070264 -11.8125 21.0625 C-11.74998596 25.25615013 -11.75694695 26.61700731 -14.0625 30.25 C-17.77164604 32.45970402 -19.74662636 32.68357791 -24 32 C-26.9375 30 -26.9375 30 -29 28 C-28.34 29.32 -27.68 30.64 -27 32 C-28.98 32 -30.96 32 -33 32 C-33.53012738 33.28788008 -34.0488329 34.58046678 -34.5625 35.875 C-34.85253906 36.59429687 -35.14257812 37.31359375 -35.44140625 38.0546875 C-36.2537118 40.05649404 -36.2537118 40.05649404 -35 42 C-37.475 42.495 -37.475 42.495 -40 43 C-41.45681542 38.62955373 -41.22489391 34.39122318 -41.25 29.8125 C-41.270625 28.89146484 -41.29125 27.97042969 -41.3125 27.02148438 C-41.35382432 19.74323914 -40.57930802 13.83723882 -35.5 8.25 C-25.63701826 1.08788367 -11.83483835 -0.21748554 0 0 Z " fill="#4C8ABB" transform="translate(91,0)"/>
<path d="M0 0 C0.495 1.485 0.495 1.485 1 3 C3.01508358 3.73323796 3.01508358 3.73323796 5 4 C5 4.99 5 5.98 5 7 C4.34 7 3.68 7 3 7 C2.62875 8.0828125 2.62875 8.0828125 2.25 9.1875 C-1.04591097 16.60329969 -6.62746984 20.04907198 -14 23 C-18.65032676 23.76171184 -23.17988276 23.72384926 -27.8828125 23.62890625 C-29.86157758 23.63173031 -31.84034305 23.63458204 -33.81910515 23.6390295 C-37.25462804 23.63842615 -40.68969512 23.59817525 -44.125 23.5625 C-48.23839933 23.52371707 -52.35121229 23.49416271 -56.46481323 23.50120544 C-59.01481467 23.50296324 -61.56496564 23.4820625 -64.11453247 23.43495178 C-71.74716906 23.43676614 -76.76322788 24.55195654 -83 29 C-83.99 29.66 -84.98 30.32 -86 31 C-86.66 30.01 -87.32 29.02 -88 28 C-88.99 28.99 -89.98 29.98 -91 31 C-91.66 30.67 -92.32 30.34 -93 30 C-86.92573302 23.18093189 -81.01726816 18.89602592 -72 17 C-70.18967821 16.9112035 -68.37646286 16.87490193 -66.56396484 16.87402344 C-65.47538177 16.87021667 -64.38679871 16.86640991 -63.26522827 16.86248779 C-62.09231232 16.86146057 -60.91939636 16.86043335 -59.7109375 16.859375 C-57.21743882 16.84104212 -54.72394899 16.82147138 -52.23046875 16.80078125 C-48.3069774 16.77186357 -44.38405393 16.75000113 -40.46044922 16.74951172 C-36.66843515 16.74616315 -32.87772406 16.71152251 -29.0859375 16.671875 C-27.34478165 16.68247955 -27.34478165 16.68247955 -25.56845093 16.69329834 C-18.13515695 16.58312139 -12.11717507 15.44622501 -6 11 C-3.16931465 7.56476167 -1.40413684 4.21241053 0 0 Z " fill="#FDFDFC" transform="translate(142,77)"/>
<path d="M0 0 C13.2 0 26.4 0 40 0 C40 4.104375 40 8.20875 40 12.4375 C40.020625 13.71294678 40.04125 14.98839355 40.0625 16.30249023 C39.91219122 23.83260765 38.52744068 27.8674931 33.16650391 33.21508789 C27.99919045 37.4722694 22.78323782 40.47821248 16 41 C16 38.03 16 35.06 16 32 C14.02 32.495 14.02 32.495 12 33 C11.505 31.515 11.505 31.515 11 30 C10.34 30 9.68 30 9 30 C8.67 30.66 8.34 31.32 8 32 C7.91293108 28.72933434 7.85958759 25.45896635 7.8125 22.1875 C7.78736328 21.25873047 7.76222656 20.32996094 7.73632812 19.37304688 C7.72666016 18.48037109 7.71699219 17.58769531 7.70703125 16.66796875 C7.68346558 15.43469849 7.68346558 15.43469849 7.65942383 14.17651367 C8.07433079 11.52497566 8.95529751 10.66736408 11 9 C11.66 9.33 12.32 9.66 13 10 C12.67 10.66 12.34 11.32 12 12 C12.33 12.99 12.66 13.98 13 15 C12.505 15.8971875 12.505 15.8971875 12 16.8125 C10.57593684 19.92763816 11.05247641 21.75134771 12 25 C13.43661311 27.52006844 13.43661311 27.52006844 16 29 C18.75805517 29.32695874 21.20538347 29.18630777 24 29 C25.89569691 25.71412535 26.76762265 22.79549678 27 19 C25.64599355 16.27018168 25.64599355 16.27018168 24 14 C24 13.34 24 12.68 24 12 C20.7 11.67 17.4 11.34 14 11 C14.33 10.34 14.66 9.68 15 9 C20.94 9 26.88 9 33 9 C33.33 6.36 33.66 3.72 34 1 C22.78 1 11.56 1 0 1 C0 0.67 0 0.34 0 0 Z " fill="#FBD538" transform="translate(104,151)"/>
<path d="M0 0 C1.14088074 0.00015106 2.28176147 0.00030212 3.45721436 0.00045776 C5.29645477 0.01594162 5.29645477 0.01594162 7.17285156 0.03173828 C8.43236633 0.03456818 9.6918811 0.03739807 10.98956299 0.04031372 C14.33021558 0.04960957 17.67059325 0.06756495 21.01116943 0.08972168 C24.42311228 0.1102187 27.83508358 0.11932366 31.24707031 0.12939453 C37.93594825 0.15145171 44.62469653 0.18492711 51.31347656 0.22705078 C51.31347656 0.55705078 51.31347656 0.88705078 51.31347656 1.22705078 C49.66347656 1.55705078 48.01347656 1.88705078 46.31347656 2.22705078 C46.31347656 2.88705078 46.31347656 3.54705078 46.31347656 4.22705078 C28.16347656 4.22705078 10.01347656 4.22705078 -8.68652344 4.22705078 C-9.67652344 6.53705078 -10.66652344 8.84705078 -11.68652344 11.22705078 C-13.66652344 11.88705078 -15.64652344 12.54705078 -17.68652344 13.22705078 C-18.01652344 20.81705078 -18.34652344 28.40705078 -18.68652344 36.22705078 C-18.02652344 36.55705078 -17.36652344 36.88705078 -16.68652344 37.22705078 C-16.7703125 37.79552734 -16.85410156 38.36400391 -16.94042969 38.94970703 C-17.60564623 43.99356407 -17.43557735 48.1709369 -16.68652344 53.22705078 C-16.94681304 55.56965721 -17.26072372 57.90880788 -17.68652344 60.22705078 C-19.34267001 60.60923845 -21.01109368 60.9410018 -22.68652344 61.22705078 C-24.78919654 59.12437768 -23.85069283 54.49566854 -23.85449219 51.59033203 C-23.85782059 50.71813522 -23.86114899 49.84593842 -23.86457825 48.9473114 C-23.86965341 47.09533212 -23.87198639 45.24334365 -23.87182617 43.39135742 C-23.87400086 40.56885439 -23.89211738 37.74674958 -23.91113281 34.92431641 C-23.91406904 33.12548962 -23.9160523 31.32666097 -23.91699219 29.52783203 C-23.9241777 28.68698563 -23.93136322 27.84613922 -23.93876648 26.97981262 C-23.90565792 18.40144349 -21.41787216 12.58314368 -15.68652344 6.22705078 C-12.56152344 3.85205078 -12.56152344 3.85205078 -9.68652344 2.22705078 C-9.08451111 1.86821808 -8.48249878 1.50938538 -7.86224365 1.13967896 C-5.11631096 -0.0121307 -2.97593777 -0.01316787 0 0 Z " fill="#FDE981" transform="translate(73.6865234375,99.77294921875)"/>
<path d="M0 0 C1.9375 0.3125 1.9375 0.3125 4 1 C5.01941802 4.05825406 5.1506337 6.2095733 5.19287109 9.41430664 C5.20893402 10.52298599 5.22499695 11.63166534 5.24154663 12.77394104 C5.28614697 17.85929702 5.32708772 22.94452314 5.35009766 28.0300293 C5.36338569 30.70643395 5.39385558 33.38102097 5.43212891 36.05737305 C5.48713416 39.92519934 5.50881246 43.79199048 5.5234375 47.66015625 C5.54610687 48.84593765 5.56877625 50.03171906 5.59213257 51.25343323 C5.57257808 59.01162651 4.12544671 64.40709431 0 71 C-0.66 71 -1.32 71 -2 71 C-2.28571429 63.57142857 -2.28571429 63.57142857 0 60 C-0.33 59.67 -0.66 59.34 -1 59 C-2.61945171 48.81110916 -2.18616454 38.22425959 -2.18530273 27.94287109 C-2.1875159 24.97870059 -2.20580593 22.01488751 -2.22460938 19.05078125 C-2.22753926 17.15885543 -2.22952676 15.26692786 -2.23046875 13.375 C-2.23765427 12.49271729 -2.24483978 11.61043457 -2.25224304 10.70141602 C-2.24916641 9.87955811 -2.24608978 9.0577002 -2.24291992 8.2109375 C-2.24434494 7.49212402 -2.24576996 6.77331055 -2.24723816 6.03271484 C-1.96102168 3.67953241 -1.16230737 2.04983614 0 0 Z " fill="#316794" transform="translate(138,16)"/>
<path d="M0 0 C0 0.66 0 1.32 0 2 C0.99 1.67 1.98 1.34 3 1 C6.67258037 -0.18047226 10.16485408 -0.07375281 14 0 C10.43404316 3.96217427 7.43902552 5.76716264 2.08293152 6.2784729 C0.47409843 6.2984584 0.47409843 6.2984584 -1.16723633 6.31884766 C-2.99856865 6.34865219 -2.99856865 6.34865219 -4.86689758 6.37905884 C-6.17539169 6.39061005 -7.4838858 6.40216125 -8.83203125 6.4140625 C-10.19253194 6.43278547 -11.55302117 6.45235973 -12.91349792 6.4727478 C-16.48246479 6.52395602 -20.05146926 6.56364187 -23.62060547 6.60089111 C-27.26734635 6.64100201 -30.91393234 6.69206192 -34.56054688 6.7421875 C-41.70691768 6.83881261 -48.85338575 6.92326001 -56 7 C-56.33 6.34 -56.66 5.68 -57 5 C-56.34 4.67 -55.68 4.34 -55 4 C-55.66 3.67 -56.32 3.34 -57 3 C-57 2.34 -57 1.68 -57 1 C-37.98229132 0.12818112 -19.03253528 -0.12988082 0 0 Z " fill="#2D6898" transform="translate(121,88)"/>
<path d="M0 0 C3.66651247 -0.08796382 7.33274918 -0.14071247 11 -0.1875 C12.54494141 -0.22520508 12.54494141 -0.22520508 14.12109375 -0.26367188 C20.49588394 -0.32457751 25.22358996 0.23882251 31 3 C33 5 33 5 33 8 C33.9590625 8.37125 33.9590625 8.37125 34.9375 8.75 C37 10 37 10 37.75 12.125 C37.8325 12.74375 37.915 13.3625 38 14 C37.01 13.67 36.02 13.34 35 13 C35 12.01 35 11.02 35 10 C34.01 10.33 33.02 10.66 32 11 C31.01 10.67 30.02 10.34 29 10 C27.8125 6.9375 27.8125 6.9375 27 4 C24.36 4.99 21.72 5.98 19 7 C19 6.01 19 5.02 19 4 C13.72 4 8.44 4 3 4 C3.03480469 5.95164062 3.06960937 7.90328125 3.10546875 9.9140625 C3.13361076 12.48436638 3.16091048 15.05467959 3.1875 17.625 C3.22520508 19.55279297 3.22520508 19.55279297 3.26367188 21.51953125 C3.27333984 22.76347656 3.28300781 24.00742188 3.29296875 25.2890625 C3.31653442 27.00150146 3.31653442 27.00150146 3.34057617 28.74853516 C2.95723398 32.4082852 1.8205057 34.82933839 0 38 C-1.65 38 -3.3 38 -5 38 C-4.67 36.68 -4.34 35.36 -4 34 C-3.34 34 -2.68 34 -2 34 C-0.77307623 27.06117901 -0.6624055 20.0935622 -0.4375 13.0625 C-0.37272461 11.17821289 -0.37272461 11.17821289 -0.30664062 9.25585938 C-0.20106381 6.17067032 -0.09895449 3.08540737 0 0 Z " fill="#FDE772" transform="translate(149,50)"/>
<path d="M0 0 C1.21816406 0.03480469 1.21816406 0.03480469 2.4609375 0.0703125 C3.68683594 0.09738281 3.68683594 0.09738281 4.9375 0.125 C5.87722656 0.15980469 5.87722656 0.15980469 6.8359375 0.1953125 C10.8165625 6.2265625 10.8165625 6.2265625 10.8984375 10.3203125 C9.52537254 14.03566475 7.99350434 15.80959533 4.8359375 18.1953125 C1.8359375 18.8203125 1.8359375 18.8203125 -1.1640625 18.1953125 C-4.39074555 15.75737419 -5.8825905 14.03972849 -7.1640625 10.1953125 C-7.1640625 5.78815813 -4.8855084 0.44093036 0 0 Z " fill="#FDFBF7" transform="translate(121.1640625,162.8046875)"/>
<path d="M0 0 C3.14674823 2.74331897 3.89954133 4.37492386 4.5625 8.5 C4 12 4 12 1.9375 14.9375 C-1 17 -1 17 -4.5 17.625 C-8.95850936 16.82883761 -10.40783917 15.69186542 -13 12 C-13.69151325 7.69725091 -13.51557405 5.79054688 -11.125 2.125 C-7.36988536 -1.63011464 -5.09635523 -1.23015471 0 0 Z " fill="#F5F9FA" transform="translate(75,15)"/>
<path d="M0 0 C0.9295752 0.00644531 1.85915039 0.01289062 2.81689453 0.01953125 C15.32097908 0.1504855 27.81944936 0.67119015 40.3125 1.1875 C40.3125 1.5175 40.3125 1.8475 40.3125 2.1875 C46.5825 2.5175 52.8525 2.8475 59.3125 3.1875 C59.3125 3.5175 59.3125 3.8475 59.3125 4.1875 C51.0888349 4.21072608 42.86518364 4.22846727 34.6414938 4.23931217 C30.82242609 4.2445186 27.00338091 4.25157535 23.18432617 4.26293945 C19.49497826 4.27384821 15.80565194 4.2797937 12.11628914 4.28237724 C10.71257246 4.28421714 9.30885688 4.28780989 7.90514946 4.29323006 C5.9308374 4.30054655 3.95650335 4.30090896 1.98217773 4.30102539 C0.86076889 4.303246 -0.26063995 4.30546661 -1.41603088 4.30775452 C-4.89768838 4.17977378 -8.24924095 3.73717698 -11.6875 3.1875 C-12.0175 4.1775 -12.3475 5.1675 -12.6875 6.1875 C-14.9975 6.5175 -17.3075 6.8475 -19.6875 7.1875 C-19.873125 8.13625 -20.05875 9.085 -20.25 10.0625 C-21.6875 13.1875 -21.6875 13.1875 -25.3125 14.5625 C-26.42625 14.76875 -27.54 14.975 -28.6875 15.1875 C-28.21123004 10.9010704 -25.81382867 8.96645881 -22.6875 6.1875 C-15.38254726 0.62938379 -8.86624882 -0.12978955 0 0 Z " fill="#3C7EB3" transform="translate(36.6875,49.8125)"/>
<path d="M0 0 C1.35862973 3.90480249 0.89469712 7.7101776 0.5625 11.75 C0.51029297 12.44738281 0.45808594 13.14476562 0.40429688 13.86328125 C0.27525928 15.57596203 0.13840386 17.28805066 0 19 C0.66 19.33 1.32 19.66 2 20 C1.87431641 20.85271484 1.87431641 20.85271484 1.74609375 21.72265625 C1.08087721 26.76651329 1.25094609 30.94388612 2 36 C1.7397104 38.34260643 1.42579972 40.6817571 1 43 C-0.65614657 43.38218767 -2.32457024 43.71395102 -4 44 C-6.11655788 41.88344212 -5.1886613 37.18595763 -5.203125 34.2578125 C-5.21167511 32.93884476 -5.21167511 32.93884476 -5.22039795 31.5932312 C-5.22986304 29.72867034 -5.2363879 27.86409264 -5.24023438 25.99951172 C-5.24993576 23.14390905 -5.2809428 20.28902716 -5.3125 17.43359375 C-5.31903014 15.62500429 -5.32428057 13.81640966 -5.328125 12.0078125 C-5.3404718 11.15148224 -5.3528186 10.29515198 -5.36553955 9.41287231 C-5.36253845 8.61549652 -5.35953735 7.81812073 -5.35644531 6.99658203 C-5.36009094 6.29566437 -5.36373657 5.5947467 -5.36749268 4.87258911 C-4.76412805 1.79809511 -3.18227159 0 0 0 Z " fill="#FDE66E" transform="translate(55,117)"/>
<path d="M0 0 C0.495 1.485 0.495 1.485 1 3 C3.01508358 3.73323796 3.01508358 3.73323796 5 4 C5 4.99 5 5.98 5 7 C4.34 7 3.68 7 3 7 C2.62875 8.0828125 2.62875 8.0828125 2.25 9.1875 C-1.01458018 16.53280542 -6.72537025 19.99728049 -14 23 C-16.84765625 23.16796875 -16.84765625 23.16796875 -19 23 C-19 22.34 -19 21.68 -19 21 C-19.99 20.67 -20.98 20.34 -22 20 C-21.34 19.67 -20.68 19.34 -20 19 C-37.16 18.67 -54.32 18.34 -72 18 C-72 17.67 -72 17.34 -72 17 C-70.98095078 16.99786247 -70.98095078 16.99786247 -69.9413147 16.99568176 C-62.83498372 16.97591084 -55.72950317 16.92147826 -48.62353516 16.84741211 C-45.97581088 16.82429423 -43.32799546 16.80985109 -40.68017578 16.80444336 C-36.86173097 16.79510906 -33.04470769 16.75401529 -29.2265625 16.70703125 C-27.46658432 16.71293022 -27.46658432 16.71293022 -25.67105103 16.71894836 C-18.20764228 16.58809905 -12.14135944 15.47096493 -6 11 C-3.16967354 7.56433397 -1.40418561 4.21255683 0 0 Z " fill="#DCE6E9" transform="translate(142,77)"/>
<path d="M0 0 C1.32 0.33 2.64 0.66 4 1 C4.79438524 4.46922149 5.10272224 7.60274615 5.02172852 11.1574707 C5.00163223 12.15813065 4.98153595 13.15879059 4.96083069 14.18977356 C4.93379562 15.2576561 4.90676056 16.32553864 4.87890625 17.42578125 C4.85529526 18.52850876 4.83168427 19.63123627 4.80735779 20.76737976 C4.73090671 24.28255685 4.64680228 27.79750329 4.5625 31.3125 C4.50926076 33.6985565 4.45652049 36.08462418 4.40429688 38.47070312 C4.27531667 44.31394418 4.14005569 50.15701449 4 56 C3.67 56 3.34 56 3 56 C2.67 39.83 2.34 23.66 2 7 C1.67 17.89 1.34 28.78 1 40 C0.01 40.495 0.01 40.495 -1 41 C-1.89504832 32.84156761 -2.18281984 24.76682834 -2.1875 16.5625 C-2.19974609 15.40556641 -2.21199219 14.24863281 -2.22460938 13.05664062 C-2.22654297 11.94611328 -2.22847656 10.83558594 -2.23046875 9.69140625 C-2.23457764 8.69310791 -2.23868652 7.69480957 -2.24291992 6.66625977 C-1.99574369 3.9532833 -1.38898247 2.31726453 0 0 Z " fill="#2F6FA3" transform="translate(138,16)"/>
<path d="M0 0 C0.66 0 1.32 0 2 0 C2.08153933 1.58246707 2.13943557 3.16616273 2.1875 4.75 C2.22230469 5.63171875 2.25710938 6.5134375 2.29296875 7.421875 C1.94923684 10.44671583 0.99772541 11.75583602 -1 14 C-0.01 14 0.98 14 2 14 C2.125 21.75 2.125 21.75 1 24 C1.33 24 1.66 24 2 24 C2 26.31 2 28.62 2 31 C-0.64 30.67 -3.28 30.34 -6 30 C-6.20742316 23.9432436 -5.50848006 18.63714919 -4.125 12.75 C-3.95097656 11.96109375 -3.77695312 11.1721875 -3.59765625 10.359375 C-2.74356285 6.61401726 -1.81960984 3.40688854 0 0 Z " fill="#4A89BB" transform="translate(6,66)"/>
<path d="M0 0 C0.66 0.66 1.32 1.32 2 2 C1.4375 3.9375 1.4375 3.9375 0 6 C-3.625 6.75 -3.625 6.75 -7 7 C-7.309375 7.928125 -7.61875 8.85625 -7.9375 9.8125 C-8.625 11.875 -9.3125 13.9375 -10 16 C-10.721875 15.525625 -11.44375 15.05125 -12.1875 14.5625 C-14.89475226 13.05847097 -16.96194275 12.43400818 -20 12 C-18.68 11.34 -17.36 10.68 -16 10 C-15.89523546 7.0414693 -15.89523546 7.0414693 -16.5625 4.375 C-16.706875 3.59125 -16.85125 2.8075 -17 2 C-13.81490259 -1.18509741 -4.27872969 -0.2213136 0 0 Z " fill="#4786B8" transform="translate(88,2)"/>
<path d="M0 0 C3.66712044 -0.08142455 7.33240748 -0.14070811 11 -0.1875 C12.54494141 -0.22520508 12.54494141 -0.22520508 14.12109375 -0.26367188 C20.49588394 -0.32457751 25.22358996 0.23882251 31 3 C33 5 33 5 33 8 C33.9590625 8.37125 33.9590625 8.37125 34.9375 8.75 C37 10 37 10 37.75 12.125 C37.8325 12.74375 37.915 13.3625 38 14 C37.01 13.67 36.02 13.34 35 13 C35 12.01 35 11.02 35 10 C34.01 10.33 33.02 10.66 32 11 C31.01 10.67 30.02 10.34 29 10 C27.8125 6.9375 27.8125 6.9375 27 4 C24.36 4.99 21.72 5.98 19 7 C19 5.02 19 3.04 19 1 C13.06 1 7.12 1 1 1 C1 7.93 1 14.86 1 22 C0.67 22 0.34 22 0 22 C0 14.74 0 7.48 0 0 Z " fill="#FBEA83" transform="translate(149,50)"/>
<path d="M0 0 C4.62 0 9.24 0 14 0 C12.83862925 4.64548301 11.89423395 5.4333458 8 8 C4.1729352 9.02266145 0.55425461 9.11637087 -3.39453125 9.09765625 C-4.59658203 9.09443359 -5.79863281 9.09121094 -7.03710938 9.08789062 C-8.28298828 9.07951172 -9.52886719 9.07113281 -10.8125 9.0625 C-12.07771484 9.05798828 -13.34292969 9.05347656 -14.64648438 9.04882812 C-17.7643711 9.03706251 -20.88216133 9.02062272 -24 9 C-24 8.67 -24 8.34 -24 8 C-16.08 8 -8.16 8 0 8 C0 5.36 0 2.72 0 0 Z " fill="#FCD540" transform="translate(168,136)"/>
<path d="M0 0 C0.33 0 0.66 0 1 0 C1.15855469 1.16015625 1.31710938 2.3203125 1.48046875 3.515625 C2.99777754 13.90729637 5.27997266 22.55994532 10 32 C8.35 32 6.7 32 5 32 C5 31.01 5 30.02 5 29 C4.360625 29.185625 3.72125 29.37125 3.0625 29.5625 C2.381875 29.706875 1.70125 29.85125 1 30 C0 29 0 29 -0.11352539 26.22436523 C-0.10828857 25.01466064 -0.10305176 23.80495605 -0.09765625 22.55859375 C-0.09443359 21.25341797 -0.09121094 19.94824219 -0.08789062 18.60351562 C-0.07953401 17.2148431 -0.07106905 15.82617123 -0.0625 14.4375 C-0.05748666 13.04492344 -0.05292347 11.65234519 -0.04882812 10.25976562 C-0.03699434 6.8398013 -0.0205088 3.41992156 0 0 Z " fill="#EFF6F8" transform="translate(0,104)"/>
<path d="M0 0 C1.32 0 2.64 0 4 0 C6.04757132 4.09514263 5.46324567 8.47414339 4.17578125 12.71484375 C1.45122222 19.77438889 1.45122222 19.77438889 -1 21 C-1.0270203 18.24993392 -1.04684883 15.50013454 -1.0625 12.75 C-1.07087891 11.97269531 -1.07925781 11.19539063 -1.08789062 10.39453125 C-1.09111328 9.64042969 -1.09433594 8.88632813 -1.09765625 8.109375 C-1.10289307 7.41811523 -1.10812988 6.72685547 -1.11352539 6.01464844 C-0.99437971 3.90026102 -0.57618237 2.03358485 0 0 Z " fill="#FBD53B" transform="translate(185,112)"/>
<path d="M0 0 C5.21442276 -0.0494186 10.42870934 -0.08572831 15.64331055 -0.10986328 C17.41742324 -0.11992411 19.19151935 -0.13357422 20.96557617 -0.15087891 C23.51485284 -0.17512378 26.06391037 -0.18648218 28.61328125 -0.1953125 C29.80405022 -0.21079636 29.80405022 -0.21079636 31.01887512 -0.22659302 C34.88223043 -0.2273811 36.70839446 -0.19440369 40 2 C32.58299607 2.84421183 25.2077769 3.10847002 17.75 3.125 C16.91114258 3.12951172 16.07228516 3.13402344 15.20800781 3.13867188 C10.05130606 3.12645703 5.10383248 2.74087891 0 2 C0 1.34 0 0.68 0 0 Z " fill="#376F9C" transform="translate(64,89)"/>
<path d="M0 0 C8.03149606 -0.26771654 8.03149606 -0.26771654 12 2 C13.32 2 14.64 2 16 2 C15.34 1.34 14.68 0.68 14 0 C20.93 0 27.86 0 35 0 C29.54869305 5.45130695 21.31480489 4.1759538 13.95239258 4.19213867 C8.68405177 4.13072742 4.05039878 3.44297108 -1 2 C-0.67 1.34 -0.34 0.68 0 0 Z " fill="#FBD43D" transform="translate(80,192)"/>
<path d="M0 0 C0 0.99 0 1.98 0 3 C-2.31 3 -4.62 3 -7 3 C-7.33 3.99 -7.66 4.98 -8 6 C-10.31 6.33 -12.62 6.66 -15 7 C-15.185625 7.94875 -15.37125 8.8975 -15.5625 9.875 C-17 13 -17 13 -20.625 14.375 C-21.73875 14.58125 -22.8525 14.7875 -24 15 C-23.52373004 10.7135704 -21.12632867 8.77895881 -18 6 C-12.47017133 1.79252166 -7.02026173 -0.42547041 0 0 Z " fill="#518EBD" transform="translate(32,50)"/>
<path d="M0 0 C8.91 0 17.82 0 27 0 C26.67 1.32 26.34 2.64 26 4 C26.99 4.33 27.98 4.66 29 5 C29 5.99 29 6.98 29 8 C29.66 8.33 30.32 8.66 31 9 C27.61720417 9 26.68516814 8.36750569 23.875 6.625 C16.35947812 2.3269471 8.51247778 1.67531139 0 1 C0 0.67 0 0.34 0 0 Z " fill="#ECF4F6" transform="translate(107,0)"/>
<path d="M0 0 C0.598125 0.639375 1.19625 1.27875 1.8125 1.9375 C3.90810337 4.20310389 3.90810337 4.20310389 7 5 C7 8.96 7 12.92 7 17 C5.35 17.33 3.7 17.66 2 18 C1.66191314 15.93827387 1.32972639 13.8755797 1 11.8125 C0.814375 10.66394531 0.62875 9.51539062 0.4375 8.33203125 C0.06510523 5.49584607 -0.08596021 2.85280436 0 0 Z " fill="#4584B6" transform="translate(0,99)"/>
<path d="M0 0 C0.103125 0.61875 0.20625 1.2375 0.3125 1.875 C0.87525373 4.36526484 0.87525373 4.36526484 4 6 C3.45730469 6.26554687 2.91460937 6.53109375 2.35546875 6.8046875 C1.64003906 7.15789062 0.92460938 7.51109375 0.1875 7.875 C-0.87404297 8.39707031 -0.87404297 8.39707031 -1.95703125 8.9296875 C-4.21246418 10.0656486 -4.21246418 10.0656486 -7 12 C-7.66 11.01 -8.32 10.02 -9 9 C-9.99 9.99 -10.98 10.98 -12 12 C-12.66 11.67 -13.32 11.34 -14 11 C-5.92255125 2.3690205 -5.92255125 2.3690205 0 0 Z " fill="#F4F7F5" transform="translate(63,96)"/>
<path d="M0 0 C16.8929385 -0.3690205 16.8929385 -0.3690205 24 2 C24 2.33 24 2.66 24 3 C16.08 3 8.16 3 0 3 C0 2.01 0 1.02 0 0 Z " fill="#4486BA" transform="translate(32,51)"/>
<path d="M0 0 C0.66 0 1.32 0 2 0 C2.33 2.31 2.66 4.62 3 7 C2.01 6.67 1.02 6.34 0 6 C-0.33 7.98 -0.66 9.96 -1 12 C0.65 11.34 2.3 10.68 4 10 C3.67 11.98 3.34 13.96 3 16 C2.67 15.01 2.34 14.02 2 13 C0.02 13.33 -1.96 13.66 -4 14 C-3.67 13.34 -3.34 12.68 -3 12 C-3.0870204 10.28766312 -3.24097162 8.57824594 -3.4375 6.875 C-3.53933594 5.96492188 -3.64117187 5.05484375 -3.74609375 4.1171875 C-3.82988281 3.41851562 -3.91367188 2.71984375 -4 2 C-3.34 2 -2.68 2 -2 2 C-2 2.66 -2 3.32 -2 4 C-1.34 4 -0.68 4 0 4 C0 2.68 0 1.36 0 0 Z " fill="#3A719E" transform="translate(100,40)"/>
<path d="M0 0 C6.93 0 13.86 0 21 0 C21 0.33 21 0.66 21 1 C20.01 1.12117187 19.02 1.24234375 18 1.3671875 C11.22407663 2.21942941 4.5823886 3.11931754 -2 5 C-1.34 3.35 -0.68 1.7 0 0 Z " fill="#EEF8FA" transform="translate(64,0)"/>
<path d="M0 0 C2.64 0 5.28 0 8 0 C8 1.98 8 3.96 8 6 C5.39417629 6.93065133 4.35801776 7.14917407 1.75 6.0625 C1.1725 5.711875 0.595 5.36125 0 5 C0 3.35 0 1.7 0 0 Z " fill="#FDDB4A" transform="translate(64,184)"/>
<path d="M0 0 C-2.31399023 2.31399023 -2.98604724 2.32256804 -6.1328125 2.6328125 C-6.93847656 2.71660156 -7.74414062 2.80039062 -8.57421875 2.88671875 C-9.41597656 2.96535156 -10.25773437 3.04398437 -11.125 3.125 C-11.97449219 3.21136719 -12.82398437 3.29773438 -13.69921875 3.38671875 C-15.79869727 3.59902557 -17.89926242 3.80053603 -20 4 C-20.33 3.34 -20.66 2.68 -21 2 C-18.62561751 1.6616656 -16.25065041 1.32920998 -13.875 1 C-12.87726563 0.85691406 -12.87726563 0.85691406 -11.859375 0.7109375 C-7.87371019 0.16388547 -4.02140062 -0.10022182 0 0 Z M-21 4 C-20.34 4.66 -19.68 5.32 -19 6 C-19.33 6.99 -19.66 7.98 -20 9 C-20.99 8.34 -21.98 7.68 -23 7 C-22.34 6.01 -21.68 5.02 -21 4 Z " fill="#5A91BC" transform="translate(91,0)"/>
<path d="M0 0 C-0.99 0.495 -0.99 0.495 -2 1 C-0.35 1.33 1.3 1.66 3 2 C3 2.33 3 2.66 3 3 C0.37472811 3.05382106 -2.24944713 3.09358313 -4.875 3.125 C-5.62136719 3.14175781 -6.36773437 3.15851562 -7.13671875 3.17578125 C-9.09194461 3.1933959 -11.04742021 3.10320189 -13 3 C-13.66 2.34 -14.32 1.68 -15 1 C-12.62185747 -0.18907126 -10.70522169 -0.3533546 -8.0625 -0.625 C-7.18722656 -0.72039063 -6.31195313 -0.81578125 -5.41015625 -0.9140625 C-3 -1 -3 -1 0 0 Z " fill="#4681B1" transform="translate(117,2)"/>
<path d="M0 0 C0.33 0.66 0.66 1.32 1 2 C3.02463255 2.65213292 3.02463255 2.65213292 5 3 C5.68707555 5.49064888 6 7.37886292 6 10 C5.01 10.66 4.02 11.32 3 12 C2.67 11.34 2.34 10.68 2 10 C2.66 10 3.32 10 4 10 C4 9.34 4 8.68 4 8 C3.34 8 2.68 8 2 8 C1.67 6.68 1.34 5.36 1 4 C-0.32 4.33 -1.64 4.66 -3 5 C-2.01 3.35 -1.02 1.7 0 0 Z " fill="#FCD74A" transform="translate(131,174)"/>
<path d="M0 0 C0.66 0.33 1.32 0.66 2 1 C1.6875 2.875 1.6875 2.875 1 5 C-2.20380017 7.13586678 -3.01939967 7.23132175 -6.6875 7.125 C-7.89986328 7.09792969 -7.89986328 7.09792969 -9.13671875 7.0703125 C-10.05904297 7.03550781 -10.05904297 7.03550781 -11 7 C-11 6.67 -11 6.34 -11 6 C-9.35 5.67 -7.7 5.34 -6 5 C-6 4.34 -6 3.68 -6 3 C-4.03533587 1.93224776 -2.03144641 0.93446535 0 0 Z " fill="#FDE570" transform="translate(134,96)"/>
<path d="M0 0 C0.66 0.33 1.32 0.66 2 1 C0.68 6.94 -0.64 12.88 -2 19 C-2.33 19 -2.66 19 -3 19 C-3 13.72 -3 8.44 -3 3 C-2.01 2.67 -1.02 2.34 0 2 C0 1.34 0 0.68 0 0 Z " fill="#ECF5F8" transform="translate(3,69)"/>
<path d="M0 0 C4.6138567 1.49271834 7.49459542 3.73360028 11 7 C11.33 7.99 11.66 8.98 12 10 C11.34 10 10.68 10 10 10 C9.67 9.34 9.34 8.68 9 8 C8.01 8 7.02 8 6 8 C5.67 7.67 5.34 7.34 5 7 C4.01 7.495 4.01 7.495 3 8 C2.87625 7.195625 2.7525 6.39125 2.625 5.5625 C2.315625 4.2940625 2.315625 4.2940625 2 3 C1.34 2.67 0.68 2.34 0 2 C0 1.34 0 0.68 0 0 Z " fill="#40769F" transform="translate(128,5)"/>
<path d="M0 0 C3.63 0 7.26 0 11 0 C8.16569547 3.2542015 6.31392226 4.5206753 2 5 C2 4.34 2 3.68 2 3 C1.34 2.67 0.68 2.34 0 2 C0 1.34 0 0.68 0 0 Z " fill="#2C6593" transform="translate(124,88)"/>
<path d="M0 0 C0 0.66 0 1.32 0 2 C0.99 2.33 1.98 2.66 3 3 C0.20129973 4.39935013 -1.90498792 4.25265405 -5 4 C-6.875 2.5 -6.875 2.5 -8 1 C-5.29120665 -0.35439668 -2.99066732 -0.06501451 0 0 Z " fill="#FCF4D4" transform="translate(125,177)"/>
<path d="M0 0 C1.28132813 0.10183594 2.56265625 0.20367187 3.8828125 0.30859375 C4.87023437 0.39238281 5.85765625 0.47617188 6.875 0.5625 C6.875 0.8925 6.875 1.2225 6.875 1.5625 C1.925 1.8925 -3.025 2.2225 -8.125 2.5625 C-8.455 1.9025 -8.785 1.2425 -9.125 0.5625 C-6.07230154 -0.96384923 -3.36654311 -0.27544444 0 0 Z " fill="#346F9B" transform="translate(73.125,92.4375)"/>
<path d="M0 0 C2.00293347 3.00440021 2.49271626 4.70993945 3.125 8.1875 C3.37636719 9.53908203 3.37636719 9.53908203 3.6328125 10.91796875 C3.75398437 11.60503906 3.87515625 12.29210937 4 13 C3.01 13 2.02 13 1 13 C0.67 8.71 0.34 4.42 0 0 Z " fill="#FAE46D" transform="translate(187,65)"/>
<path d="M0 0 C1 3 1 3 0.4375 5.125 C-1 7 -1 7 -4.125 7.75 C-5.548125 7.87375 -5.548125 7.87375 -7 8 C-6.02133662 6.85373678 -5.04205413 5.70800212 -4.0625 4.5625 C-3.51722656 3.92441406 -2.97195312 3.28632812 -2.41015625 2.62890625 C-1.63204305 1.73008851 -0.84063472 0.84063472 0 0 Z " fill="#FAE66E" transform="translate(143,88)"/>
<path d="M0 0 C0.66 0.33 1.32 0.66 2 1 C1.67 2.32 1.34 3.64 1 5 C-1.875 5.625 -1.875 5.625 -5 6 C-5.66 5.34 -6.32 4.68 -7 4 C-1.7265625 0.77734375 -1.7265625 0.77734375 0 0 Z " fill="#FDF8EA" transform="translate(133,186)"/>
<path d="M0 0 C0.66 0 1.32 0 2 0 C2.33 0.66 2.66 1.32 3 2 C3.99 1.67 4.98 1.34 6 1 C5.67 3.31 5.34 5.62 5 8 C4.34 8 3.68 8 3 8 C3 6.68 3 5.36 3 4 C2.34 4 1.68 4 1 4 C0.67 2.68 0.34 1.36 0 0 Z " fill="#FBD54A" transform="translate(130,166)"/>
<path d="M0 0 C0.99 0.33 1.98 0.66 3 1 C0.375 5.875 0.375 5.875 -3 7 C-2.67 5.35 -2.34 3.7 -2 2 C-1.34 2 -0.68 2 0 2 C0 1.34 0 0.68 0 0 Z " fill="#FDF7E9" transform="translate(140,87)"/>
<path d="M0 0 C0.66 0 1.32 0 2 0 C1.50168276 3.68754757 0.89932357 5.60490662 -2 8 C-2.66 6.35 -3.32 4.7 -4 3 C-3.01 3 -2.02 3 -1 3 C-0.67 2.01 -0.34 1.02 0 0 Z " fill="#FCDA56" transform="translate(141,173)"/>
<path d="M0 0 C0.33 0 0.66 0 1 0 C1.309375 1.11375 1.61875 2.2275 1.9375 3.375 C2.82326483 6.7945155 2.82326483 6.7945155 4 9 C2.35 9 0.7 9 -1 9 C-0.67 6.03 -0.34 3.06 0 0 Z " fill="#FDF7E1" transform="translate(50,171)"/>
<path d="M0 0 C0.33 0 0.66 0 1 0 C1.33 1.65 1.66 3.3 2 5 C2.66 4.34 3.32 3.68 4 3 C4 4.98 4 6.96 4 9 C2.68 8.67 1.36 8.34 0 8 C0 5.36 0 2.72 0 0 Z " fill="#5C96C7" transform="translate(0,88)"/>
<path d="M0 0 C0.66 0.33 1.32 0.66 2 1 C1.40072174 4.35595828 0.15377564 6.37801226 -2 9 C-2.66 8.67 -3.32 8.34 -4 8 C-2.68 5.36 -1.36 2.72 0 0 Z " fill="#FEF5E1" transform="translate(188,126)"/>
<path d="M0 0 C0.99 0.33 1.98 0.66 3 1 C2.01 1.66 1.02 2.32 0 3 C-0.33 3.99 -0.66 4.98 -1 6 C-1.66 6 -2.32 6 -3 6 C-3 5.34 -3 4.68 -3 4 C-3.66 3.67 -4.32 3.34 -5 3 C-2.6875 1.4375 -2.6875 1.4375 0 0 Z " fill="#FDE981" transform="translate(64,102)"/>
<path d="M0 0 C0.99 0.33 1.98 0.66 3 1 C1.4198632 3.15473199 -0.10646634 5.10646634 -2 7 C-2.33 6.01 -2.66 5.02 -3 4 C-1.5625 1.8125 -1.5625 1.8125 0 0 Z " fill="#FAFEFB" transform="translate(138,86)"/>
</svg>
