<?xml version="1.0" encoding="UTF-8"?>
<svg version="1.1" xmlns="http://www.w3.org/2000/svg" width="225" height="225">
<path d="M0 0 C74.25 0 148.5 0 225 0 C225 74.25 225 148.5 225 225 C150.75 225 76.5 225 0 225 C0 150.75 0 76.5 0 0 Z " fill="#FEFEFE" transform="translate(0,0)"/>
<path d="M0 0 C1.4387146 -0.00422974 1.4387146 -0.00422974 2.90649414 -0.00854492 C3.96731201 -0.00652069 5.02812988 -0.00449646 6.12109375 -0.00241089 C7.23154053 -0.00416321 8.3419873 -0.00591553 9.48608398 -0.00772095 C13.17693621 -0.01214208 16.86774099 -0.00920055 20.55859375 -0.00582886 C23.11067718 -0.00650182 25.66276054 -0.00747178 28.21484375 -0.00872803 C33.57162137 -0.01020536 38.9283818 -0.00814391 44.28515625 -0.00338745 C50.4864309 0.00205514 56.68767268 0.00029247 62.88894653 -0.00521386 C68.8439359 -0.01029073 74.79891502 -0.00976343 80.75390625 -0.00683212 C83.2929688 -0.00616259 85.83203217 -0.00699218 88.37109375 -0.00931168 C91.91278339 -0.01183666 95.45440892 -0.00799978 98.99609375 -0.00241089 C100.05691162 -0.00443512 101.11772949 -0.00645935 102.21069336 -0.00854492 C103.16983643 -0.0057251 104.12897949 -0.00290527 105.1171875 0 C105.95564209 0.00037703 106.79409668 0.00075405 107.65795898 0.0011425 C109.55859375 0.12698364 109.55859375 0.12698364 110.55859375 1.12698364 C110.67204525 3.91522102 110.72277638 6.67775709 110.7265625 9.46682739 C110.7315551 10.72276451 110.7315551 10.72276451 110.73664856 12.0040741 C110.74172131 13.77868092 110.74405678 15.55329731 110.74389648 17.32791138 C110.74608172 20.0495062 110.76423008 22.77069507 110.78320312 25.49221802 C110.78613717 27.21291975 110.78812189 28.93362342 110.7890625 30.65432739 C110.79624802 31.47207138 110.80343353 32.28981537 110.81083679 33.13233948 C110.78741579 38.89816161 110.78741579 38.89816161 108.55859375 41.12698364 C106.05041203 41.30186811 103.65144043 41.35881989 101.14453125 41.32229614 C100.49782471 41.32028198 99.85111816 41.31826782 99.18481445 41.31619263 C96.7676688 41.30572389 94.35062419 41.27780125 91.93359375 41.25198364 C86.52984375 41.21073364 81.12609375 41.16948364 75.55859375 41.12698364 C75.88859375 55.64698364 76.21859375 70.16698364 76.55859375 85.12698364 C79.45769531 81.58979614 82.35679688 78.05260864 85.34375 74.40823364 C89.35126729 69.73537342 93.45413244 65.15802389 97.62109375 60.62698364 C98.42345018 59.75400572 98.42345018 59.75400572 99.24201584 58.86339188 C112.74313289 44.31709326 124.21486385 33.65577623 144.88804626 32.69512939 C156.8575335 32.65259771 168.80202828 33.92230241 180.55859375 36.12698364 C181.34410095 37.80599976 181.34410095 37.80599976 181.55859375 40.12698364 C179.74269104 42.54415894 179.74269104 42.54415894 176.99047852 45.26272583 C176.49319244 45.76074203 175.99590637 46.25875824 175.48355103 46.77186584 C173.83394069 48.41798773 172.1673168 50.04568959 170.5 51.67385864 C169.35405337 52.81048167 168.20920442 53.94821237 167.06541443 55.08700562 C164.04970214 58.08361277 161.01927768 61.06490528 157.9855957 64.04330444 C154.89352022 67.08426372 151.8155234 70.13939886 148.73632812 73.19338989 C142.69081022 79.18525806 136.6296843 85.16102826 130.55859375 91.12698364 C135.22868787 96.80215162 140.30383918 101.94302258 145.55735588 107.07864952 C147.56837174 109.04710342 149.56965705 111.02533324 151.57167149 113.00293446 C155.28565161 116.67136348 159.00363351 120.33552704 162.73754883 123.9836731 C165.34876713 126.53564687 167.94773126 129.09954349 170.53891182 131.67185402 C171.52604982 132.64723746 172.51771047 133.61806553 173.51389885 134.58420372 C174.89943243 135.92891651 176.26840446 137.29063105 177.63647461 138.65310669 C178.42001816 139.42253098 179.20356171 140.19195526 180.010849 140.98469543 C181.55859375 143.12698364 181.55859375 143.12698364 181.3037262 145.40660095 C181.05783249 145.97432724 180.81193878 146.54205353 180.55859375 147.12698364 C163.61551999 150.53796942 139.52498232 155.38280357 123.75662994 146.06180573 C114.15710522 139.35726276 106.47052192 129.99297626 98.87109375 121.18948364 C81.93391062 100.08168902 81.93391062 100.08168902 57.41459656 91.23829651 C49.17887878 91.03399793 40.95265743 91.86246935 32.88598633 93.5071106 C31.238927 93.81394775 31.238927 93.81394775 29.55859375 94.12698364 C28.55859375 93.12698364 28.55859375 93.12698364 28.43833923 91.03260803 C28.44055984 90.11105423 28.44278046 89.18950043 28.44506836 88.24002075 C28.44514389 87.19901718 28.44521942 86.15801361 28.44529724 85.08546448 C28.45045853 83.95318924 28.45561981 82.820914 28.4609375 81.65432739 C28.46235245 80.501548 28.4637674 79.34876862 28.46522522 78.16105652 C28.4708437 74.46217301 28.48339933 70.763349 28.49609375 67.06448364 C28.50110637 64.56383347 28.50566969 62.06318236 28.50976562 59.56253052 C28.52081913 53.41732776 28.53757523 47.27215995 28.55859375 41.12698364 C27.5641626 41.13222046 26.56973145 41.13745728 25.54516602 41.14285278 C21.86825454 41.16090405 18.191347 41.1724161 14.5144043 41.18191528 C12.92064761 41.18695522 11.32689556 41.19378714 9.7331543 41.2024231 C7.44709122 41.21450363 5.16108908 41.22021519 2.875 41.22463989 C2.15832657 41.22980118 1.44165314 41.23496246 0.70326233 41.24028015 C-1.01204297 41.24047627 -2.72721891 41.18890372 -4.44140625 41.12698364 C-6.31103343 39.25735646 -5.57026928 36.58034803 -5.58035278 34.09317017 C-5.57832855 33.24839111 -5.57630432 32.40361206 -5.57421875 31.53323364 C-5.57517548 30.67137451 -5.5761322 29.80951538 -5.57711792 28.92153931 C-5.57779975 27.09565152 -5.57594529 25.26976133 -5.57177734 23.44387817 C-5.56642911 20.63897286 -5.57172224 17.83422769 -5.578125 15.02932739 C-5.57746422 13.25979579 -5.57618306 11.49026428 -5.57421875 9.72073364 C-5.57624298 8.87595459 -5.57826721 8.03117554 -5.58035278 7.16079712 C-5.55133164 0.00249625 -5.55133164 0.00249625 0 0 Z " fill="#FBFBFB" transform="translate(24.44140625,38.873016357421875)"/>
<path d="M0 0 C-1.49078774 3.12610718 -3.03102949 5.30195297 -5.5 7.75 C-6.1084375 8.36359375 -6.716875 8.9771875 -7.34375 9.609375 C-9 11 -9 11 -11 11 C-11.268125 11.598125 -11.53625 12.19625 -11.8125 12.8125 C-12.99917406 14.99847854 -14.09599113 16.41332594 -16 18 C-16.66 18 -17.32 18 -18 18 C-18 18.66 -18 19.32 -18 20 C-18.66 20 -19.32 20 -20 20 C-20 20.66 -20 21.32 -20 22 C-20.66 22 -21.32 22 -22 22 C-22.495 23.485 -22.495 23.485 -23 25 C-23.66 25 -24.32 25 -25 25 C-25 25.66 -25 26.32 -25 27 C-25.66 27 -26.32 27 -27 27 C-27 27.66 -27 28.32 -27 29 C-27.66 29 -28.32 29 -29 29 C-29 29.66 -29 30.32 -29 31 C-30.36328125 32.33984375 -30.36328125 32.33984375 -32.3125 33.9375 C-35.98211434 37.06785202 -39.4951461 40.31172498 -42.9375 43.6875 C-43.87464844 44.59886719 -44.81179687 45.51023438 -45.77734375 46.44921875 C-48.40601298 49.3597645 -48.40601298 49.3597645 -49 53 C-47.23645147 55.4899446 -47.23645147 55.4899446 -44.61547852 57.9362793 C-44.13769958 58.41318207 -43.65992065 58.89008484 -43.16766357 59.38143921 C-41.58281278 60.95769625 -39.98110698 62.51561683 -38.37890625 64.07421875 C-37.27773019 65.16353225 -36.17772265 66.25402816 -35.07884216 67.34565735 C-32.18130414 70.21841563 -29.26951702 73.07628352 -26.35412598 75.9309082 C-22.24271791 79.96192014 -18.15093835 84.012871 -14.05686951 88.06147766 C-11.87505753 90.21894732 -9.68793213 92.37080816 -7.49647522 94.51847839 C-6.50227489 95.49627287 -5.50808776 96.47408076 -4.51391602 97.4519043 C-3.64042007 98.3080986 -2.76692413 99.16429291 -1.86695862 100.0464325 C0 102 0 102 0 103 C-14.75468428 106.49844635 -33.98780394 110.07296817 -47.77957916 101.95215607 C-57.77403329 95.21702826 -66.18374745 86.26075585 -74.375 77.5 C-74.94547184 76.89015133 -75.51594368 76.28030266 -76.10370255 75.65197372 C-83.27777643 67.94527937 -90.2274056 60.06139621 -97 52 C-95.78763672 50.5931897 -95.78763672 50.5931897 -94.55078125 49.15795898 C-91.97358657 46.15657438 -89.44153367 43.12101494 -86.91796875 40.07446289 C-81.76888513 33.92413129 -76.45756951 27.9389625 -71 22.0625 C-70.51323917 21.53775211 -70.02647835 21.01300423 -69.52496719 20.47235489 C-48.79482437 -1.68206743 -30.02701159 -6.1115447 0 0 Z " fill="#FBFBFB" transform="translate(198,79)"/>
<path d="M0 0 C1.4387146 -0.00422974 1.4387146 -0.00422974 2.90649414 -0.00854492 C3.96731201 -0.00652069 5.02812988 -0.00449646 6.12109375 -0.00241089 C7.23154053 -0.00416321 8.3419873 -0.00591553 9.48608398 -0.00772095 C13.17693621 -0.01214208 16.86774099 -0.00920055 20.55859375 -0.00582886 C23.11067718 -0.00650182 25.66276054 -0.00747178 28.21484375 -0.00872803 C33.57162137 -0.01020536 38.9283818 -0.00814391 44.28515625 -0.00338745 C50.4864309 0.00205514 56.68767268 0.00029247 62.88894653 -0.00521386 C68.8439359 -0.01029073 74.79891502 -0.00976343 80.75390625 -0.00683212 C83.2929688 -0.00616259 85.83203217 -0.00699218 88.37109375 -0.00931168 C91.91278339 -0.01183666 95.45440892 -0.00799978 98.99609375 -0.00241089 C100.05691162 -0.00443512 101.11772949 -0.00645935 102.21069336 -0.00854492 C103.16983643 -0.0057251 104.12897949 -0.00290527 105.1171875 0 C105.95564209 0.00037703 106.79409668 0.00075405 107.65795898 0.0011425 C109.55859375 0.12698364 109.55859375 0.12698364 110.55859375 1.12698364 C110.67204525 3.91522102 110.72277638 6.67775709 110.7265625 9.46682739 C110.7315551 10.72276451 110.7315551 10.72276451 110.73664856 12.0040741 C110.74172131 13.77868092 110.74405678 15.55329731 110.74389648 17.32791138 C110.74608172 20.0495062 110.76423008 22.77069507 110.78320312 25.49221802 C110.78613717 27.21291975 110.78812189 28.93362342 110.7890625 30.65432739 C110.79624802 31.47207138 110.80343353 32.28981537 110.81083679 33.13233948 C110.78741579 38.89816161 110.78741579 38.89816161 108.55859375 41.12698364 C106.05041203 41.30186811 103.65144043 41.35881989 101.14453125 41.32229614 C100.49782471 41.32028198 99.85111816 41.31826782 99.18481445 41.31619263 C96.7676688 41.30572389 94.35062419 41.27780125 91.93359375 41.25198364 C86.52984375 41.21073364 81.12609375 41.16948364 75.55859375 41.12698364 C75.88859375 55.64698364 76.21859375 70.16698364 76.55859375 85.12698364 C79.45769531 81.58979614 82.35679688 78.05260864 85.34375 74.40823364 C89.35126729 69.73537342 93.45413244 65.15802389 97.62109375 60.62698364 C98.42345018 59.75400572 98.42345018 59.75400572 99.24201584 58.86339188 C112.74313289 44.31709326 124.21486385 33.65577623 144.88804626 32.69512939 C156.8575335 32.65259771 168.80202828 33.92230241 180.55859375 36.12698364 C181.34410095 37.80599976 181.34410095 37.80599976 181.55859375 40.12698364 C179.74269104 42.54415894 179.74269104 42.54415894 176.99047852 45.26272583 C176.49319244 45.76074203 175.99590637 46.25875824 175.48355103 46.77186584 C173.83394069 48.41798773 172.1673168 50.04568959 170.5 51.67385864 C169.35405337 52.81048167 168.20920442 53.94821237 167.06541443 55.08700562 C164.04970214 58.08361277 161.01927768 61.06490528 157.9855957 64.04330444 C154.89352022 67.08426372 151.8155234 70.13939886 148.73632812 73.19338989 C142.69081022 79.18525806 136.6296843 85.16102826 130.55859375 91.12698364 C135.22868787 96.80215162 140.30383918 101.94302258 145.55735588 107.07864952 C147.56837174 109.04710342 149.56965705 111.02533324 151.57167149 113.00293446 C155.28565161 116.67136348 159.00363351 120.33552704 162.73754883 123.9836731 C165.34876713 126.53564687 167.94773126 129.09954349 170.53891182 131.67185402 C171.52604982 132.64723746 172.51771047 133.61806553 173.51389885 134.58420372 C174.89943243 135.92891651 176.26840446 137.29063105 177.63647461 138.65310669 C178.42001816 139.42253098 179.20356171 140.19195526 180.010849 140.98469543 C181.55859375 143.12698364 181.55859375 143.12698364 181.3037262 145.40660095 C181.05783249 145.97432724 180.81193878 146.54205353 180.55859375 147.12698364 C163.61551999 150.53796942 139.52498232 155.38280357 123.75662994 146.06180573 C114.15710522 139.35726276 106.47052192 129.99297626 98.87109375 121.18948364 C81.93391062 100.08168902 81.93391062 100.08168902 57.41459656 91.23829651 C49.17887878 91.03399793 40.95265743 91.86246935 32.88598633 93.5071106 C31.238927 93.81394775 31.238927 93.81394775 29.55859375 94.12698364 C28.55859375 93.12698364 28.55859375 93.12698364 28.43833923 91.03260803 C28.44055984 90.11105423 28.44278046 89.18950043 28.44506836 88.24002075 C28.44514389 87.19901718 28.44521942 86.15801361 28.44529724 85.08546448 C28.45045853 83.95318924 28.45561981 82.820914 28.4609375 81.65432739 C28.46235245 80.501548 28.4637674 79.34876862 28.46522522 78.16105652 C28.4708437 74.46217301 28.48339933 70.763349 28.49609375 67.06448364 C28.50110637 64.56383347 28.50566969 62.06318236 28.50976562 59.56253052 C28.52081913 53.41732776 28.53757523 47.27215995 28.55859375 41.12698364 C27.5641626 41.13222046 26.56973145 41.13745728 25.54516602 41.14285278 C21.86825454 41.16090405 18.191347 41.1724161 14.5144043 41.18191528 C12.92064761 41.18695522 11.32689556 41.19378714 9.7331543 41.2024231 C7.44709122 41.21450363 5.16108908 41.22021519 2.875 41.22463989 C2.15832657 41.22980118 1.44165314 41.23496246 0.70326233 41.24028015 C-1.01204297 41.24047627 -2.72721891 41.18890372 -4.44140625 41.12698364 C-6.31103343 39.25735646 -5.57026928 36.58034803 -5.58035278 34.09317017 C-5.57832855 33.24839111 -5.57630432 32.40361206 -5.57421875 31.53323364 C-5.57517548 30.67137451 -5.5761322 29.80951538 -5.57711792 28.92153931 C-5.57779975 27.09565152 -5.57594529 25.26976133 -5.57177734 23.44387817 C-5.56642911 20.63897286 -5.57172224 17.83422769 -5.578125 15.02932739 C-5.57746422 13.25979579 -5.57618306 11.49026428 -5.57421875 9.72073364 C-5.57624298 8.87595459 -5.57826721 8.03117554 -5.58035278 7.16079712 C-5.55133164 0.00249625 -5.55133164 0.00249625 0 0 Z M-1.44140625 4.12698364 C-1.44140625 14.68698364 -1.44140625 25.24698364 -1.44140625 36.12698364 C9.77859375 36.45698364 20.99859375 36.78698364 32.55859375 37.12698364 C32.88859375 54.61698364 33.21859375 72.10698364 33.55859375 90.12698364 C46.09859375 90.12698364 58.63859375 90.12698364 71.55859375 90.12698364 C71.88859375 72.63698364 72.21859375 55.14698364 72.55859375 37.12698364 C83.44859375 36.79698364 94.33859375 36.46698364 105.55859375 36.12698364 C105.55859375 25.56698364 105.55859375 15.00698364 105.55859375 4.12698364 C70.24859375 4.12698364 34.93859375 4.12698364 -1.44140625 4.12698364 Z M99.18359375 65.62698364 C98.61312191 66.23683231 98.04265007 66.84668098 97.4548912 67.47500992 C90.28081732 75.18170427 83.33118815 83.06558743 76.55859375 91.12698364 C77.36683594 92.06485718 78.17507812 93.00273071 79.0078125 93.96902466 C81.58500718 96.97040926 84.11706008 100.00596871 86.640625 103.05252075 C91.78970862 109.20285235 97.10102424 115.18802115 102.55859375 121.06448364 C103.04535458 121.58923153 103.5321154 122.11397942 104.03362656 122.65462875 C115.65996812 135.07976655 126.09554721 145.31999138 143.98751831 146.25657654 C153.9500347 146.31648093 163.80992885 145.11117715 173.55859375 143.12698364 C168.55603496 137.0843245 163.12682051 131.56600321 157.56640625 126.03713989 C156.61069127 125.0832941 155.65519987 124.12922423 154.69992065 123.17494202 C152.20664459 120.6854517 149.7103785 118.1989814 147.21343994 115.71316528 C144.65737866 113.16740371 142.1042087 110.61874587 139.55078125 108.07034302 C134.55618356 103.08641296 129.55841576 98.10567317 124.55859375 93.12698364 C125.97799229 89.3666411 127.30904585 87.00689166 130.18359375 84.17385864 C130.89 83.47260864 131.59640625 82.77135864 132.32421875 82.04885864 C133.43023437 80.97378052 133.43023437 80.97378052 134.55859375 79.87698364 C135.2959375 79.14479614 136.03328125 78.41260864 136.79296875 77.65823364 C142.24914826 72.28170639 142.24914826 72.28170639 144.55859375 71.12698364 C144.55859375 70.46698364 144.55859375 69.80698364 144.55859375 69.12698364 C145.21859375 69.12698364 145.87859375 69.12698364 146.55859375 69.12698364 C146.55859375 68.46698364 146.55859375 67.80698364 146.55859375 67.12698364 C147.21859375 67.12698364 147.87859375 67.12698364 148.55859375 67.12698364 C148.55859375 66.46698364 148.55859375 65.80698364 148.55859375 65.12698364 C149.54859375 64.79698364 150.53859375 64.46698364 151.55859375 64.12698364 C151.55859375 63.46698364 151.55859375 62.80698364 151.55859375 62.12698364 C152.21859375 62.12698364 152.87859375 62.12698364 153.55859375 62.12698364 C153.55859375 61.46698364 153.55859375 60.80698364 153.55859375 60.12698364 C154.21859375 60.12698364 154.87859375 60.12698364 155.55859375 60.12698364 C155.55859375 59.46698364 155.55859375 58.80698364 155.55859375 58.12698364 C156.15671875 57.85885864 156.75484375 57.59073364 157.37109375 57.31448364 C159.55707229 56.12780958 160.97191969 55.03099252 162.55859375 53.12698364 C162.55859375 52.46698364 162.55859375 51.80698364 162.55859375 51.12698364 C163.14125 50.86917114 163.72390625 50.61135864 164.32421875 50.34573364 C166.73888405 49.02864348 168.37599552 47.5760998 170.30859375 45.62698364 C170.9221875 45.01854614 171.53578125 44.41010864 172.16796875 43.78323364 C173.77293463 42.23214087 173.77293463 42.23214087 173.55859375 40.12698364 C139.77771539 32.11728392 121.79589631 41.44254291 99.18359375 65.62698364 Z " fill="#080808" transform="translate(24.44140625,38.873016357421875)"/>
</svg>
